# xmcd
#
# Track frame offsets:
#	150
#	19522
#	41145
#	62267
#	74626
#	88678
#	103963
#	117305
#	133638
#	157331
#	182172
#
# Disc length: 2485 seconds
#
# Revision: 0
# Processed by: cddbd v1.5.2PL0 Copyright (c) Steve Scherf et al.
# Submitted via: EasyCDDAExtractor 16.0.6.1
#
DISCID=9e09b30b
DTITLE=David Lebon
DYEAR=1900
DGENRE=
TTITLE0=Todos en un Cuarto
TTITLE1=Ya debes ser feliz
TTITLE2=Nadie sabe escuchar
TTITLE3=Un Dia que no Fue
TTITLE4=Solo sos Vos
TTITLE5=Y si de Algo Sirve
TTITLE6=Y me sucedio a mi
TTITLE7=Si yo pudiera ser tu amigo
TTITLE8=El Mejor Amor
TTITLE9=Hace siete dias
TTITLE10=Y si de Algo Sirve
EXTD=
EXTT0=
EXTT1=
EXTT2=
EXTT3=
EXTT4=
EXTT5=
EXTT6=
EXTT7=
EXTT8=
EXTT9=
EXTT10=
PLAYORDER=
